<svg version="1.1" viewBox="0 0 482 482" xmlns="http://www.w3.org/2000/svg">
  <g fill="none" fill-rule="evenodd">
    <rect x=".5" y=".5" width="481" height="481" rx="50" fill="#EB0254"/>
    <g transform="translate(40 153)" fill="#FFFFFF">
      <ellipse cx="45" cy="130.5" rx="45" ry="45.5"/>
      <ellipse cx="357" cy="46.5" rx="45" ry="45.5"/>
      <path d="m129.5 1c16.845 0 30.5 13.858 30.5 30.952v114.61l-0.098803-4.1e-5c-1.2588 15.921-14.389 28.442-30.401 28.442s-29.142-12.522-30.401-28.442l-0.098803 4.1e-5v-114.61l0.0040861-0.51185c0.26934-16.858 13.82-30.44 30.496-30.44z"/>
      <path d="m202 1c16.569 0 30 13.858 30 30.952v114.61l-0.097183-4.1e-5c-1.2381 15.921-14.153 28.442-29.903 28.442s-28.665-12.522-29.903-28.442l-0.097183 4.1e-5v-114.61l0.004019-0.51185c0.26492-16.858 13.593-30.44 29.996-30.44z"/>
      <path d="m271.5 0c16.845 0 30.5 13.871 30.5 30.981v114.71l-0.043773-5.02e-4c-0.85616 16.332-14.164 29.307-30.456 29.307s-29.6-12.975-30.456-29.307l-0.043773 5.02e-4v-114.71l0.004086-0.51233c0.26934-16.874 13.82-30.469 30.496-30.469z"/>
    </g>
  </g>
</svg>